<?xml version="1.0" standalone="no"?>
<!DOCTYPE svg PUBLIC "-//W3C//DTD SVG 20010904//EN"
 "http://www.w3.org/TR/2001/REC-SVG-20010904/DTD/svg10.dtd">
<svg version="1.0" xmlns="http://www.w3.org/2000/svg"
 width="259.000000pt" height="194.000000pt" viewBox="0 0 259.000000 194.000000"
 preserveAspectRatio="xMidYMid meet">

<g transform="translate(0.000000,194.000000) scale(0.100000,-0.100000)"
fill="#000000" stroke="none">
<path d="M2576 1781 c-4 -7 -5 -15 -2 -18 9 -9 19 4 14 18 -4 11 -6 11 -12 0z"/>
<path d="M2560 1735 c-14 -8 -34 -15 -45 -15 -11 -1 -14 -4 -8 -7 25 -9 -19
-68 -44 -59 -6 3 -13 -4 -16 -15 -3 -11 -11 -17 -19 -14 -7 3 -22 -1 -33 -9
-19 -14 -19 -15 -2 -16 28 0 15 -22 -21 -34 -17 -6 -33 -15 -34 -21 -3 -12
-63 -34 -98 -36 -24 -2 -24 -2 -2 -6 28 -6 29 -19 1 -26 -12 -3 -18 -10 -14
-17 4 -6 9 -9 12 -6 3 3 14 1 24 -5 21 -11 27 -61 7 -57 -24 4 -63 -14 -85
-41 -14 -16 -22 -21 -23 -12 0 18 -60 -37 -60 -55 0 -7 -16 -16 -35 -20 -19
-3 -37 -10 -40 -14 -3 -5 -30 -14 -60 -20 -30 -6 -55 -16 -55 -21 0 -5 -11 -9
-24 -9 -13 0 -27 -7 -30 -16 -4 -9 -9 -14 -12 -11 -3 3 -20 -9 -37 -26 -34
-34 -36 -35 -47 -16 -6 9 -12 9 -24 -4 -9 -8 -16 -20 -16 -26 0 -6 -7 -8 -16
-4 -13 5 -15 1 -9 -18 5 -18 4 -21 -4 -9 -9 13 -15 8 -13 -11 1 -3 -14 -12
-33 -19 -18 -7 -38 -23 -43 -34 -9 -21 -9 -21 -16 2 -5 14 -13 21 -21 18 -7
-2 -16 2 -19 10 -7 19 -26 18 -26 -1 0 -8 -5 -14 -11 -12 -6 1 -13 -7 -16 -18
-9 -45 -11 -50 -21 -48 -6 2 -9 -3 -6 -11 3 -7 -2 -16 -11 -20 -9 -3 -13 -2
-10 3 9 16 -15 24 -31 10 -11 -9 -18 -9 -26 -1 -7 7 -20 12 -30 12 -20 0 -25
16 -7 22 6 2 -9 4 -34 4 -28 0 -44 -4 -40 -11 2 -5 -2 -2 -10 8 -10 12 -17 14
-22 8 -3 -6 -3 -11 0 -11 4 0 -1 -8 -10 -17 -16 -16 -18 -16 -27 0 -5 9 -15
17 -22 17 -8 0 -19 6 -25 14 -10 11 -8 15 6 19 17 4 17 5 -1 6 -10 0 -25 9
-32 19 -13 16 -14 16 -7 -3 6 -19 6 -19 -13 -3 -19 17 -21 17 -37 1 -16 -16
-18 -16 -34 1 -17 18 -17 19 -1 13 21 -7 25 15 6 30 -16 13 -78 13 -78 1 0 -5
-5 -6 -10 -3 -6 3 -10 15 -10 25 0 10 -5 22 -10 25 -7 4 -9 -2 -4 -19 7 -31
-5 -33 -35 -7 -13 12 -30 17 -43 13 -16 -4 -20 -1 -16 10 5 11 -1 13 -26 11
-28 -3 -29 -2 -8 7 32 14 27 20 -8 10 -21 -6 -30 -5 -30 3 0 15 -39 51 -64 60
-12 5 -17 14 -13 27 5 21 -9 28 -15 8 -3 -9 -15 -7 -44 7 -21 11 -42 18 -46
17 -4 -1 -16 10 -26 23 -23 29 -32 31 -32 10 0 -9 -9 -15 -22 -15 -17 0 -19 3
-9 9 15 10 0 23 -21 18 -7 -2 -10 -2 -5 1 9 5 -37 42 -52 42 -6 0 -11 -6 -11
-14 0 -7 -9 -16 -20 -19 -23 -6 -26 3 -8 22 11 10 7 11 -17 5 -38 -9 -43 -13
-25 -24 8 -5 11 -12 7 -16 -4 -4 1 -13 10 -20 15 -11 14 -11 -9 -7 -15 3 -26
10 -25 16 2 13 -45 16 -54 3 -4 -5 -12 1 -18 13 -14 24 -5 27 46 12 26 -7 31
-7 26 5 -3 8 -9 11 -14 8 -8 -5 -14 18 -10 39 1 5 -9 7 -22 5 -13 -1 -31 3
-40 10 -10 9 -17 10 -22 2 -8 -13 3 -30 21 -30 8 0 14 -5 14 -11 0 -5 -4 -7
-10 -4 -5 3 -10 1 -10 -4 0 -6 -5 -11 -11 -11 -5 0 -7 4 -4 10 9 14 -8 13 -23
-2 -17 -17 -28 -2 -12 17 7 9 8 15 2 15 -6 0 -13 -6 -15 -12 -4 -10 -6 -10 -6
0 -1 6 -7 12 -15 12 -7 0 -27 7 -42 15 -16 8 -23 15 -16 15 7 0 23 -5 35 -11
22 -11 22 -11 2 7 -11 11 -35 20 -54 21 -19 1 -38 8 -43 15 -13 21 -28 -11
-28 -64 0 -36 4 -48 15 -48 8 0 15 -4 15 -10 0 -5 -7 -7 -15 -3 -14 5 -16 -40
-14 -416 l1 -421 22 0 c20 0 20 -1 -4 -21 -24 -20 -24 -21 -3 -16 28 6 31 -13
3 -20 -19 -5 -20 -14 -20 -148 0 -106 3 -145 13 -148 10 -4 10 -7 0 -18 -7 -7
-13 -32 -13 -56 l0 -43 164 0 c99 0 167 4 171 10 3 6 11 10 16 10 6 0 7 -4 4
-10 -4 -7 373 -10 1114 -10 l1121 1 -1 121 c0 67 -4 116 -8 109 -6 -9 -10 -7
-14 8 -3 14 0 21 9 21 12 0 14 111 14 745 0 410 -1 745 -2 745 -2 -1 -14 -7
-28 -15z m-235 -225 c3 -6 -1 -7 -9 -4 -18 7 -21 14 -7 14 6 0 13 -4 16 -10z
m-2236 -140 c11 0 23 -4 26 -10 4 -6 -7 -10 -25 -10 -18 0 -29 4 -25 10 3 6
-1 10 -9 10 -16 0 -22 21 -9 34 4 4 11 -2 15 -14 4 -11 16 -20 27 -20z m18
-36 c-3 -3 -12 -4 -19 -1 -8 3 -5 6 6 6 11 1 17 -2 13 -5z m30 -20 c-3 -3 -12
-4 -19 -1 -8 3 -5 6 6 6 11 1 17 -2 13 -5z m43 2 c0 -3 -4 -8 -10 -11 -5 -3
-10 -1 -10 4 0 6 5 11 10 11 6 0 10 -2 10 -4z m50 -16 c0 -5 -4 -10 -10 -10
-5 0 -10 5 -10 10 0 6 5 10 10 10 6 0 10 -4 10 -10z m200 -9 c0 -9 -24 -21
-42 -21 -6 0 -6 6 2 15 14 16 40 20 40 6z m-353 -7 c-3 -3 -12 -4 -19 -1 -8 3
-5 6 6 6 11 1 17 -2 13 -5z m172 -49 c-8 -9 -29 -18 -45 -20 -29 -5 -29 -5 6
15 42 23 60 26 39 5z m150 11 c-2 -2 -22 -6 -44 -10 -29 -5 -36 -4 -25 3 13
10 79 16 69 7z m1878 -2 c-3 -3 -12 -4 -19 -1 -8 3 -5 6 6 6 11 1 17 -2 13 -5z
m-1630 -30 c-3 -3 -12 -4 -19 -1 -8 3 -5 6 6 6 11 1 17 -2 13 -5z m-460 -110
c-3 -3 -12 -4 -19 -1 -8 3 -5 6 6 6 11 1 17 -2 13 -5z m713 -54 c0 -5 -2 -10
-4 -10 -3 0 -8 5 -11 10 -3 6 -1 10 4 10 6 0 11 -4 11 -10z m399 -106 c-6 -8
-17 -14 -23 -13 -7 0 -6 2 2 6 6 2 12 11 12 19 0 9 5 12 10 9 8 -5 7 -11 -1
-21z m-202 10 c-3 -3 -12 -4 -19 -1 -8 3 -5 6 6 6 11 1 17 -2 13 -5z m-767
-24 c0 -5 -8 -10 -17 -10 -15 0 -16 2 -3 10 19 12 20 12 20 0z m840 -15 c0 -6
-9 -11 -20 -11 -11 0 -20 5 -20 11 0 6 9 11 20 11 11 0 20 -5 20 -11z m-803
-21 c-3 -3 -12 -4 -19 -1 -8 3 -5 6 6 6 11 1 17 -2 13 -5z m1060 -40 c-3 -3
-12 -4 -19 -1 -8 3 -5 6 6 6 11 1 17 -2 13 -5z m1133 -4 c0 -5 -2 -10 -4 -10
-3 0 -8 5 -11 10 -3 6 -1 10 4 10 6 0 11 -4 11 -10z m-1200 -26 c0 -11 6 -14
21 -9 15 5 19 4 15 -4 -4 -6 -1 -11 6 -12 12 0 -16 -15 -37 -18 -5 -1 -19 -8
-31 -16 -20 -13 -21 -12 -20 13 1 15 -2 35 -7 45 -6 14 -3 17 23 17 21 0 30
-5 30 -16z m955 -44 c3 -5 1 -10 -4 -10 -6 0 -11 5 -11 10 0 6 2 10 4 10 3 0
8 -4 11 -10z m-755 -99 c0 -13 -22 -29 -53 -36 -17 -5 -27 -3 -27 4 0 6 9 11
20 11 11 0 23 7 26 15 7 16 34 21 34 6z m-1130 -45 c0 -3 -4 -8 -10 -11 -5 -3
-10 -1 -10 4 0 6 5 11 10 11 6 0 10 -2 10 -4z m1115 -6 c-3 -5 -14 -10 -23
-10 -15 0 -15 2 -2 10 20 13 33 13 25 0z m337 -34 c-3 -5 0 -6 6 -2 6 4 8 14
5 23 -4 11 -2 14 8 11 8 -2 16 -15 17 -29 2 -13 1 -21 -3 -17 -4 4 -20 1 -36
-7 -31 -17 -52 -20 -29 -5 13 8 12 10 -2 10 -11 0 -18 8 -18 20 0 14 5 18 17
13 13 -5 15 -3 9 13 -7 18 -6 18 12 -1 11 -11 17 -24 14 -29z m-416 -19 c1
-22 -3 -27 -22 -27 -18 0 -24 6 -24 23 0 28 9 39 30 35 9 -2 15 -14 16 -31z
m-1236 8 c0 -8 -4 -15 -8 -15 -5 0 -9 7 -9 15 0 8 4 15 9 15 4 0 8 -7 8 -15z
m-176 -20 c-4 -8 -11 -15 -16 -15 -6 0 -5 6 2 15 7 8 14 15 16 15 2 0 1 -7 -2
-15z m1336 -40 c0 -21 5 -35 13 -35 8 0 9 -2 1 -8 -7 -4 -13 -15 -15 -25 -4
-15 -15 -12 -89 25 -47 24 -89 49 -94 57 -8 12 -10 12 -20 -1 -6 -8 -31 -25
-56 -38 -25 -13 -51 -30 -58 -39 -8 -9 -11 -11 -8 -4 3 6 -40 -8 -96 -31 -57
-24 -111 -46 -121 -49 -10 -4 -15 -12 -11 -18 4 -7 1 -10 -7 -7 -8 3 -15 22
-17 46 l-3 42 75 0 76 0 0 60 0 60 215 0 215 0 0 -35z m-590 -20 c0 -8 -7 -15
-15 -15 -26 0 -18 20 13 29 1 1 2 -6 2 -14z m396 -22 c-11 -11 -17 4 -9 23 7
18 8 18 11 1 2 -10 1 -21 -2 -24z m-478 -10 c-4 -22 -24 -32 -163 -81 -87 -31
-115 -37 -132 -29 -13 5 -23 13 -23 17 0 7 66 33 152 60 21 6 40 16 44 21 3 5
9 7 13 5 4 -3 25 1 47 9 52 19 65 18 62 -2z m979 1 c-3 -3 -12 -4 -19 -1 -8 3
-5 6 6 6 11 1 17 -2 13 -5z m-1595 -26 c-3 -14 2 -18 27 -18 31 0 31 -1 31
-50 0 -48 -11 -63 -26 -38 -4 7 -3 8 4 4 7 -4 12 -3 12 2 0 5 -9 12 -21 15
-14 4 -19 2 -16 -7 3 -7 1 -19 -4 -27 -6 -10 -9 -5 -9 18 0 23 -6 33 -20 38
-11 4 -18 10 -15 15 3 5 0 12 -7 16 -7 5 -3 10 13 17 14 5 19 11 12 14 -20 7
-15 22 6 20 12 -1 17 -7 13 -19z m488 18 c0 -2 -7 -7 -16 -10 -8 -3 -12 -2 -9
4 6 10 25 14 25 6z m237 -12 c-3 -3 -12 -4 -19 -1 -8 3 -5 6 6 6 11 1 17 -2
13 -5z m321 -23 c11 -7 10 -9 -3 -15 -9 -3 -14 -10 -10 -15 3 -6 -3 -8 -14 -6
-12 2 -21 -3 -24 -16 -3 -10 -13 -19 -24 -19 -13 0 -15 -2 -5 -9 11 -7 11 -9
-2 -14 -9 -4 -16 -2 -16 3 0 12 -69 45 -77 37 -3 -4 -1 -13 5 -20 9 -10 8 -14
-2 -14 -11 0 -14 20 -7 47 0 3 12 5 25 5 14 0 22 -5 19 -12 -3 -7 4 -11 16
-10 14 1 17 5 11 11 -16 16 -12 36 8 36 14 0 15 -2 2 -10 -11 -7 -7 -10 18
-10 17 0 32 4 32 10 0 5 6 7 14 4 8 -3 16 -1 20 4 6 10 -24 9 -42 -2 -6 -4
-12 -3 -12 3 0 18 45 27 68 12z m392 -21 c0 -16 -3 -30 -7 -29 -5 0 -35 13
-68 29 l-60 28 68 1 67 1 0 -30z m1004 4 c3 -8 2 -12 -4 -9 -6 3 -10 10 -10
16 0 14 7 11 14 -7z m29 -14 c3 -11 1 -20 -4 -20 -5 0 -9 9 -9 20 0 11 2 20 4
20 2 0 6 -9 9 -20z m-1151 -39 c-4 -12 -7 -12 -11 2 -4 12 -10 14 -21 7 -13
-8 -13 -11 3 -22 16 -12 14 -13 -15 -14 -18 -1 -27 1 -20 3 6 3 12 10 12 15 0
6 8 19 17 28 20 19 44 5 35 -19z m-295 -23 c-18 -11 -37 -10 -37 3 0 6 7 9 15
5 8 -3 14 -2 14 2 -3 19 2 25 11 12 6 -9 5 -17 -3 -22z m986 25 c-7 -2 -19 -2
-25 0 -7 3 -2 5 12 5 14 0 19 -2 13 -5z m-1193 -13 c13 -8 13 -10 -2 -10 -9 0
-20 5 -23 10 -8 13 5 13 25 0z m1258 3 c-10 -2 -26 -2 -35 0 -10 3 -2 5 17 5
19 0 27 -2 18 -5z m-863 -13 c-3 -5 -12 -10 -18 -10 -7 0 -6 4 3 10 19 12 23
12 15 0z m215 0 c8 -5 11 -10 5 -10 -5 0 -17 5 -25 10 -8 5 -10 10 -5 10 6 0
17 -5 25 -10z m470 -5 c0 -8 -7 -15 -15 -15 -8 0 -15 -7 -15 -15 0 -21 9 -19
31 8 22 27 24 9 4 -40 -21 -51 -20 -53 25 -32 21 10 47 19 58 19 10 0 23 5 29
11 8 8 13 8 17 0 4 -6 0 -11 -9 -11 -12 0 -14 -4 -6 -19 8 -15 7 -20 -6 -25
-21 -9 -29 0 -14 18 9 11 6 13 -16 13 -16 0 -22 -2 -15 -4 6 -3 12 -9 12 -14
0 -6 -10 -5 -22 2 -23 12 -23 12 -4 -10 19 -21 9 -30 -11 -10 -7 7 -23 9 -39
5 -22 -6 -25 -9 -13 -17 10 -6 5 -9 -18 -9 -26 0 -33 4 -33 19 0 11 -6 22 -12
24 -10 4 -9 8 2 16 13 10 13 12 0 21 -13 8 -12 10 5 10 23 0 9 16 -20 23 -13
3 -9 5 12 6 26 1 31 4 26 18 -5 13 -2 15 15 11 12 -4 20 -2 16 3 -3 5 0 9 5 9
6 0 11 -7 11 -15z m227 9 c-3 -3 -12 -4 -19 -1 -8 3 -5 6 6 6 11 1 17 -2 13
-5z m215 -26 c-9 -9 -12 -7 -12 12 0 19 3 21 12 12 9 -9 9 -15 0 -24z m-2139
15 c-7 -2 -19 -2 -25 0 -7 3 -2 5 12 5 14 0 19 -2 13 -5z m2004 -9 c-3 -3 -12
-4 -19 -1 -8 3 -5 6 6 6 11 1 17 -2 13 -5z m-25 -28 c7 4 8 2 4 -4 -11 -17
-36 -3 -28 16 6 16 7 15 10 -1 2 -9 8 -14 14 -11z m-1888 -10 c-21 -15 -30
-14 -19 3 3 6 14 11 23 11 13 0 13 -2 -4 -14z m386 4 c0 -5 -4 -10 -10 -10 -5
0 -10 5 -10 10 0 6 5 10 10 10 6 0 10 -4 10 -10z m1408 -9 c-7 -11 -16 -17
-20 -15 -4 3 -8 1 -8 -5 0 -5 8 -12 18 -14 9 -2 6 -3 -8 -2 -24 3 -24 3 -5
-11 19 -14 19 -14 -5 -11 -24 4 -42 27 -21 27 6 0 11 6 11 13 0 11 26 31 48
36 1 1 -3 -8 -10 -18z m-2018 -32 c0 -7 -6 -4 -15 7 -19 25 -19 40 0 20 8 -8
15 -20 15 -27z m1588 6 c8 -18 8 -26 0 -31 -6 -4 -8 -3 -4 4 3 6 -3 13 -14 17
-20 6 -25 16 -13 28 11 12 20 8 31 -18z m528 10 c17 6 18 6 1 -5 -9 -6 -22 -8
-27 -5 -6 3 -10 1 -10 -6 0 -7 -3 -10 -6 -6 -4 3 -3 14 0 24 5 13 9 14 15 5 4
-7 16 -10 27 -7z m-1746 -5 c0 -5 -5 -10 -11 -10 -5 0 -7 5 -4 10 3 6 8 10 11
10 2 0 4 -4 4 -10z m1784 -6 c3 -8 2 -12 -4 -9 -6 3 -10 10 -10 16 0 14 7 11
14 -7z m201 -14 c0 -13 -6 -25 -13 -27 -7 -3 -10 1 -6 11 3 9 1 23 -5 30 -10
12 -9 14 6 12 11 -2 18 -11 18 -26z m-2435 -4 c0 -3 -4 -8 -10 -11 -5 -3 -10
-1 -10 4 0 6 5 11 10 11 6 0 10 -2 10 -4z m227 -11 c0 -8 -4 -12 -9 -9 -5 3
-6 10 -3 15 9 13 12 11 12 -6z m1938 -6 c-8 -12 -63 -16 -59 -4 3 6 18 11 34
11 16 0 27 -3 25 -7z m-1981 -10 c-3 -6 -1 -15 6 -19 8 -5 -4 -11 -31 -15 -24
-4 -52 -11 -61 -16 -13 -7 -16 -6 -13 4 3 7 18 14 33 15 14 1 36 11 47 22 22
22 30 26 19 9z m196 -17 c8 -9 11 -13 6 -9 -5 4 -14 3 -20 -2 -7 -6 -18 0 -30
16 l-19 25 24 -7 c13 -4 31 -14 39 -23z m1248 8 c14 0 14 -2 3 -9 -8 -5 -20
-7 -27 -4 -18 7 -29 -18 -13 -28 9 -6 10 -9 2 -9 -18 0 -25 17 -18 41 4 13 12
18 22 15 8 -3 22 -6 31 -6z m322 0 c0 -5 -7 -10 -16 -10 -8 0 -12 5 -9 10 3 6
10 10 16 10 5 0 9 -4 9 -10z m120 -1 c0 -5 -11 -8 -25 -7 -14 1 -25 5 -25 9 0
4 11 7 25 7 14 0 25 -4 25 -9z m-1375 -9 c-19 -8 -19 -9 2 -9 12 -1 25 -5 28
-11 3 -5 14 -10 24 -10 10 0 24 -7 31 -15 20 -24 -25 -19 -61 7 -25 19 -33 20
-49 10 -14 -8 -21 -9 -26 0 -4 6 -3 8 4 4 6 -3 13 3 17 14 4 12 15 20 28 19
21 0 21 -1 2 -9z m-715 -21 c0 -6 -4 -7 -10 -4 -5 3 -10 11 -10 16 0 6 5 7 10
4 6 -3 10 -11 10 -16z m640 1 c12 -8 11 -10 -7 -10 -12 0 -28 -3 -37 -6 -9 -3
-16 -1 -16 6 0 6 4 9 9 5 5 -3 12 -1 16 5 8 12 16 12 35 0z m-610 -20 c0 -5
-5 -10 -11 -10 -5 0 -7 5 -4 10 3 6 8 10 11 10 2 0 4 -4 4 -10z m1681 -7 c13
-17 13 -17 -6 -3 -11 8 -22 16 -24 17 -2 2 0 3 6 3 6 0 17 -8 24 -17z m558 8
c7 -5 12 -14 9 -21 -2 -7 -10 -4 -22 9 -19 21 -12 28 13 12z m51 5 c0 -3 -4
-8 -10 -11 -5 -3 -10 -1 -10 4 0 6 5 11 10 11 6 0 10 -2 10 -4z m35 -16 c3 -5
-1 -10 -10 -10 -9 0 -13 5 -10 10 3 6 8 10 10 10 2 0 7 -4 10 -10z m-2244 -23
c-10 -9 -11 -8 -5 6 3 10 9 15 12 12 3 -3 0 -11 -7 -18z m279 16 c0 -11 -12
-26 -32 -41 -15 -12 -17 -11 -15 10 0 13 6 26 12 30 13 10 35 10 35 1z m238
-15 c-2 -6 -10 -14 -16 -16 -7 -2 -10 2 -6 12 7 18 28 22 22 4z m757 2 c3 -6
-1 -7 -9 -4 -18 7 -21 14 -7 14 6 0 13 -4 16 -10z m865 -5 c0 -8 -4 -15 -10
-15 -5 0 -10 7 -10 15 0 8 5 15 10 15 6 0 10 -7 10 -15z m-1825 -5 c-3 -5 -11
-10 -16 -10 -6 0 -7 5 -4 10 3 6 11 10 16 10 6 0 7 -4 4 -10z m255 0 c0 -5 -5
-10 -11 -10 -5 0 -7 5 -4 10 3 6 8 10 11 10 2 0 4 -4 4 -10z m695 -10 c3 -6
-1 -7 -9 -4 -18 7 -21 14 -7 14 6 0 13 -4 16 -10z m920 -10 c10 -11 16 -20 13
-20 -3 0 -13 9 -23 20 -10 11 -16 20 -13 20 3 0 13 -9 23 -20z m-839 -6 c18
-14 18 -14 -6 -3 -31 14 -36 19 -24 19 6 0 19 -7 30 -16z m934 -1 c0 -11 -4
-11 -22 -2 -32 16 -32 17 -3 17 15 0 25 -6 25 -15z m-1985 -3 c-27 -12 -43
-12 -25 0 8 5 22 9 30 9 10 0 8 -3 -5 -9z m1455 -3 c0 -7 -10 -13 -22 -14 -22
-2 -22 -1 -4 13 24 17 26 17 26 1z m-1216 -22 c3 -8 1 -15 -4 -15 -6 0 -10 7
-10 15 0 8 2 15 4 15 2 0 6 -7 10 -15z m666 -5 c-8 -5 -17 -7 -19 -4 -3 3 1 9
9 14 8 5 17 7 19 4 3 -3 -1 -9 -9 -14z m-747 -15 c-3 -9 -8 -14 -10 -11 -3 3
-2 9 2 15 9 16 15 13 8 -4z m222 5 c3 -6 -1 -7 -9 -4 -18 7 -21 14 -7 14 6 0
13 -4 16 -10z m855 6 c0 -3 -4 -8 -10 -11 -5 -3 -10 -1 -10 4 0 6 5 11 10 11
6 0 10 -2 10 -4z m71 -13 c13 -17 13 -17 -6 -3 -11 8 -22 16 -24 17 -2 2 0 3
6 3 6 0 17 -8 24 -17z m-361 -7 c0 -9 -40 -13 -46 -5 -3 5 6 9 20 9 14 0 26
-2 26 -4z"/>
<path d="M1070 379 c0 -5 5 -7 10 -4 6 3 10 8 10 11 0 2 -4 4 -10 4 -5 0 -10
-5 -10 -11z"/>
<path d="M1963 265 c-16 -18 -16 -25 0 -25 7 0 13 9 14 20 2 23 2 24 -14 5z"/>
<path d="M1950 220 c0 -5 4 -10 9 -10 6 0 13 5 16 10 3 6 -1 10 -9 10 -9 0
-16 -4 -16 -10z"/>
<path d="M2461 1717 c2 -1 13 -9 24 -17 19 -14 19 -14 6 3 -7 9 -18 17 -24 17
-6 0 -8 -1 -6 -3z"/>
<path d="M2397 1653 c-4 -3 -7 -11 -7 -17 0 -6 5 -5 12 2 6 6 9 14 7 17 -3 3
-9 2 -12 -2z"/>
<path d="M2420 1650 c0 -5 5 -10 10 -10 6 0 10 5 10 10 0 6 -4 10 -10 10 -5 0
-10 -4 -10 -10z"/>
<path d="M2157 1473 c-3 -5 8 -8 24 -9 16 -1 29 3 29 7 0 11 -47 12 -53 2z"/>
<path d="M315 1379 c-4 -11 -4 -23 -1 -26 3 -4 6 -1 6 5 0 7 8 12 18 12 9 0
24 5 32 11 13 9 12 10 -2 5 -10 -3 -20 -1 -23 4 -10 16 -23 11 -30 -11z"/>
<path d="M620 1280 c0 -5 5 -10 10 -10 6 0 10 5 10 10 0 6 -4 10 -10 10 -5 0
-10 -4 -10 -10z"/>
<path d="M1200 982 c0 -12 19 -26 26 -19 2 2 -2 10 -11 17 -9 8 -15 8 -15 2z"/>
</g>
</svg>
